{"title":"Ocean's.Twelve.2004.1080p.BRRiP.x264.AC-3(5.1).mkv-Zen_Bud","uid":6079422,"size":4732455533,"categoryP":"video","categoryS":"hd___movies","magnet":"?xt=urn:btih:2e2e48cf01185b0bccb02bc2a44fdb2857c6245c&amp;dn=Ocean%5C%27s.Twelve.2004.1080p.BRRiP.x264.AC-3%285.1%29.mkv-Zen_Bud&amp;tr=udp%3A%2F%2Ftracker.openbittorrent.com%3A80&amp;tr=udp%3A%2F%2Fopen.demonii.com%3A1337&amp;tr=udp%3A%2F%2Ftracker.coppersurfer.tk%3A6969&amp;tr=udp%3A%2F%2Fexodus.desync.com%3A6969","seeders":0,"leechers":1,"uploader":"Zen_Bud","files":-1,"time":1294043299,"description":"**** Ocean's.Twelve.2004.1080p.BRRiP.x264.AC-3(5.1).mkv-Zen_Bud ****\n\nFormat                           : Matroska\nFile size                        : 4.34 GiB\nDuration                         : 2h 5mn\nOverall bit rate                 : 4 960 Kbps\nWriting application              : HandBrake svn3720\nWriting library                  : libmkv 0.6.4.1\n\nVideo\n\nFormat                           : AVC\nCodec ID                         : V_MPEG4\nDuration                         : 2h 5mn\nBit rate                         : 4 315 Kbps\nWidth                            : 1 920 pixels\nHeight                           : 800 pixels\nDisplay aspect ratio             : 2.40:1\nBits/(Pixel*Frame)               : 0.117\nStream size                      : 3.69 GiB (85%)\nWriting library                  : x264 core 112\n\n\nAudio\n\nFormat                           : AC-3\nDuration                         : 2h 5mn\nBit rate                         : 640 Kbps\nChannel(s)                       : 6 channels\nChannel positions                : Front: L C R, Side: L R, LFE\nSampling rate                    : 48.0 KHz\nStream size                      : 574 MiB (13%)\nLanguage                         : English\n\nText #1\nCodec ID/Info                    : UTF-8 Plain Text\nLanguage                         : English\n\nText #2\nCodec ID/Info                    : UTF-8 Plain Text\nLanguage                         : Swedish\n\n***********************************************************************\nDaniel Ocean recruits one more team member so he can pull off three \nmajor European heists in this sequel to Ocean's 11.\n &lt;a href=&quot;\nhttp://en.wikipedia.org/wiki/Ocean%27s_Twelve&quot; rel=&quot;nofollow&quot; target=&quot;_NEW&quot;&gt;\nhttp://en.wikipedia.org/wiki/Ocean%27s_Twelve&lt;/a&gt;\n\n***********************************************************************\n\nScreenshots:\n       &lt;a href=&quot;\nhttp://img23.imageshack.us/slideshow/webplayer.php?id=vlcsnap00001dv.png&quot; rel=&quot;nofollow&quot; target=&quot;_NEW&quot;&gt;\nhttp://img23.imageshack.us/slideshow/webplayer.php?id=vlcsnap00001dv.png&lt;/a&gt;\n  \n+ Sample included:[55,7 MB]\n\t\t","torrent":{"xt":"urn:btih:2e2e48cf01185b0bccb02bc2a44fdb2857c6245c","amp;dn":"Ocean%5C%27s.Twelve.2004.1080p.BRRiP.x264.AC-3%285.1%29.mkv-Zen_Bud","amp;tr":["udp%3A%2F%2Ftracker.openbittorrent.com%3A80","udp%3A%2F%2Fopen.demonii.com%3A1337","udp%3A%2F%2Ftracker.coppersurfer.tk%3A6969","udp%3A%2F%2Fexodus.desync.com%3A6969"],"infoHash":"2e2e48cf01185b0bccb02bc2a44fdb2857c6245c","infoHashBuffer":{"type":"Buffer","data":[46,46,72,207,1,24,91,11,204,176,43,194,164,79,219,40,87,198,36,92]},"announce":[],"urlList":[]}}